<svg width="305" height="241" viewBox="0 0 305 241" fill="none" xmlns="http://www.w3.org/2000/svg">
<g clip-path="url(#clip0_10_15)">
<path d="M262.71 240.768H42.2899C18.9715 240.768 -1.5281e-05 237.72 -1.5281e-05 214.402C-1.5281e-05 191.084 18.9715 179.859 42.2899 179.859H262.71C286.028 179.859 305 191.084 305 214.402C305 237.72 286.028 240.768 262.71 240.768Z" fill="#CCCCCC"/>
<path d="M73.0462 229.78C104.659 229.78 130.287 220.026 130.287 207.994C130.287 195.963 104.659 186.209 73.0462 186.209C41.4329 186.209 15.8053 195.963 15.8053 207.994C15.8053 220.026 41.4329 229.78 73.0462 229.78Z" fill="#E6E6E6"/>
<path d="M73.4734 188.345C103.193 188.345 127.616 196.966 130.437 207.994C130.617 207.292 130.714 206.579 130.714 205.859C130.714 193.827 105.087 184.073 73.4734 184.073C41.8602 184.073 16.2325 193.827 16.2325 205.859C16.2325 206.579 16.3301 207.292 16.5095 207.994C19.3303 196.966 43.7541 188.345 73.4734 188.345Z" fill="#B3B3B3"/>
<path d="M238.789 229.78C270.402 229.78 296.029 220.026 296.029 207.994C296.029 195.963 270.402 186.209 238.789 186.209C207.175 186.209 181.548 195.963 181.548 207.994C181.548 220.026 207.175 229.78 238.789 229.78Z" fill="#E6E6E6"/>
<path d="M238.361 188.345C268.081 188.345 292.504 196.966 295.325 207.994C295.505 207.292 295.602 206.579 295.602 205.859C295.602 193.827 269.974 184.073 238.361 184.073C206.748 184.073 181.12 193.827 181.12 205.859C181.12 206.579 181.218 207.292 181.397 207.994C184.218 196.966 208.642 188.345 238.361 188.345Z" fill="#B3B3B3"/>
<path d="M135.84 168.244C135.84 163.132 98.8839 157.831 71.2792 157.831C43.6746 157.831 21.2963 168.917 21.2963 174.029C21.2963 176.177 26.5939 178.603 34.783 180.694C23.4526 184.328 23.5458 186.505 23.5458 189.414C23.5458 191.691 22.1647 196.946 31.2111 199.118C22.7698 202.442 23.9439 206.462 23.9439 208.92C23.9439 214.032 47.6082 220.541 75.213 220.541C102.818 220.541 123.07 210.848 123.07 205.736C123.07 203.45 124.749 198.347 114.115 196.476C124.082 192.842 123.866 191.055 123.866 188.617C123.866 186.445 124.074 181.915 114.28 180.096C126.915 176.125 135.84 171.064 135.84 168.244Z" fill="#3F3D56"/>
<path d="M80.8061 140.106C82.4335 138.627 85.0129 138.313 86.9477 139.358C88.8826 140.403 86.4426 145.075 86.0985 147.247C85.9739 148.033 84.6064 157.186 84.5609 157.98C84.5154 158.775 93.2405 157.277 93.9619 157.613C95.004 158.098 98.3812 155.743 98.966 154.753C100.983 151.339 93.9691 139.591 90.8695 137.118C87.77 134.644 83.0162 134.646 79.785 136.944" fill="#0F7718"/>
<path d="M62.7965 140.106C61.169 138.627 58.5897 138.313 56.6548 139.358C54.72 140.403 57.16 145.075 57.5041 147.247C57.6287 148.033 59.2458 157.533 59.2913 158.328C59.3367 159.122 53.2215 162.281 52.5001 162.617C51.4581 163.102 45.2214 155.743 44.6366 154.753C42.6195 151.339 49.6335 139.591 52.7331 137.118C55.8326 134.644 60.5864 134.646 63.8176 136.944" fill="#0F7718"/>
<path d="M86.6943 138.236H56.8271C55.7694 138.236 54.9119 139.094 54.9119 140.151V156.143C54.9119 157.201 55.7694 158.058 56.8271 158.058H86.6943C87.752 158.058 88.6095 157.201 88.6095 156.143V140.151C88.6095 139.094 87.752 138.236 86.6943 138.236Z" fill="#3F3D56"/>
<path d="M59.9248 52.0704L64.6527 103.641C64.6527 103.641 60.721 110.432 63.5804 113.292C63.5804 113.292 58.219 117.223 61.4358 120.44C61.4358 120.44 56.7893 123.3 59.6487 126.159C61.6503 128.161 60.3939 134.13 59.46 137.531C58.7015 140.293 53.3969 154.168 55.0021 156.541C56.8405 159.257 73.22 159.402 80.0222 158.328C93.6045 156.183 83.2391 135.452 83.2391 135.452C83.2391 135.452 79.3073 122.585 76.8053 122.585C74.3033 122.585 76.4479 117.223 75.0182 115.794C73.5884 114.364 75.0182 110.12 73.5884 108.667C72.1587 107.215 74.3033 103.323 72.1587 102.588C70.0142 101.854 67.6095 55.1085 67.6095 55.1085L59.9248 52.0704Z" fill="#0F7718"/>
<path d="M131.449 163.914C131.09 161.855 129.837 160.337 128.474 159.62C127.11 158.903 125.632 158.856 124.184 158.817C88.4978 154.22 58.1263 153.062 42.6725 161.558C42.6725 161.558 42.1835 161.104 43.1689 162.688C44.1543 164.271 45.5423 165.155 46.7391 166.386C49.6988 169.428 51.4509 174.834 51.1911 180.123C51.0814 182.356 50.641 184.575 50.8181 186.798C50.9952 189.021 52.0755 191.351 53.6005 191.392C55.3061 191.439 56.4413 188.67 56.5799 186.176C56.7327 183.423 56.1472 180.702 56.0396 177.944C55.9319 175.187 56.492 172.026 58.17 170.775C60.0039 169.407 62.183 170.925 63.9717 172.416C66.1256 174.211 68.2796 176.007 70.4336 177.802C71.2282 178.464 72.0346 179.14 72.6704 180.103C74.0066 182.129 74.3987 185.14 74.3511 187.958C74.3037 190.776 73.8822 193.561 73.8608 196.38C73.8393 199.198 74.2911 202.206 75.6823 204.15C77.0736 206.094 79.5844 206.429 80.8265 204.279C82.5685 206.132 85.165 206.004 86.8183 203.983C87.4522 203.209 87.9228 202.183 88.2123 201.052C88.232 201.148 88.2522 201.244 88.2749 201.339C88.7265 203.228 89.9453 204.882 91.3045 204.704C93.3109 204.442 94.1498 200.827 94.3231 197.882C94.5158 194.606 94.4747 191.295 94.8466 188.053C95.2185 184.81 96.0586 181.551 97.7097 179.328C99.3609 177.105 101.949 176.18 103.915 177.757C105.297 178.865 106.156 180.943 107.124 182.765C108.092 184.587 109.41 186.342 110.984 186.296C112.592 186.249 113.885 184.327 114.724 182.313C115.563 180.299 116.166 178.018 117.325 176.383C118.784 174.326 120.884 173.627 122.887 173.215C124.891 172.803 126.973 172.566 128.757 171.166C130.541 169.766 131.95 166.79 131.449 163.914Z" fill="#0F7718"/>
<path d="M155.606 189.251H167.274L168.645 195.387C168.645 195.387 177.465 205.742 167.494 205.742C157.523 205.742 140.649 208.81 140.649 204.975C140.649 201.14 152.921 198.838 152.921 198.838L155.606 189.251Z" fill="#2F2E41"/>
<path d="M228.941 159.967L228.722 148.301L234.831 146.815C234.831 146.815 245.018 137.801 245.205 147.77C245.393 157.739 248.778 174.553 244.944 174.625C241.11 174.697 238.578 162.471 238.578 162.471L228.941 159.967Z" fill="#2F2E41"/>
<path d="M194.309 29.9251L196.689 38.7321L185.978 44.2067L181.931 32.5434L194.309 29.9251Z" fill="#FFB6B6"/>
<path d="M151.716 27.9392C152.512 29.1086 153.017 30.4517 153.188 31.8561L162.103 43.652L156.366 47.73L147.94 35.3253C146.716 34.6182 145.678 33.628 144.914 32.4377C142.962 29.4846 142.902 26.0849 144.781 24.8427C146.66 23.6006 149.765 24.9869 151.716 27.9392Z" fill="#FFB6B6"/>
<path d="M178.999 85.7042L197.356 85.5836C197.356 85.5836 205.704 100.924 196.5 116.648L194.966 148.862L233.317 146.945V160.861C233.317 160.861 183.461 167.654 181.543 163.819C179.626 159.984 175.791 136.042 175.791 136.042L171.918 142.857L168.121 192.198H156.264L153.655 138.891L176.558 96.3218L178.999 85.7042Z" fill="#2F2E41"/>
<path d="M183.368 37.1281L195.942 36.0703L197.795 37.3607C200.934 47.0621 201.766 57.3619 200.227 67.4414L197.417 85.8309L178.217 89.109L176.691 53.9466L183.368 37.1281Z" fill="#0F7718"/>
<path d="M196.212 44.7668L182.823 36.9333L170.639 45.1527L157.045 33.3874L148.319 39.7623C148.319 39.7623 160.615 56.4682 166.919 57.3815C173.222 58.2947 196.212 44.7668 196.212 44.7668Z" fill="#0F7718"/>
<path opacity="0.1" d="M194.353 52.2576C194.353 52.2576 194.503 79.6527 188.285 80.3774C182.068 81.1021 177.742 79.3628 177.742 79.3628" fill="black"/>
<path d="M143.836 38.2989C138.445 38.2989 132.714 35.962 128.268 31.4352C124.443 27.5414 122.121 22.6178 121.728 17.5713C121.329 12.4467 122.958 7.80779 126.317 4.50911C133.192 -2.24317 145.254 -1.15093 153.204 6.94396C161.154 15.039 162.029 27.1182 155.155 33.8703C152.124 36.8467 148.086 38.2989 143.836 38.2989ZM137.64 2.45876C133.999 2.45876 130.562 3.68765 127.991 6.21307C125.144 9.00908 123.766 12.9768 124.109 17.3858C124.458 21.873 126.541 26.268 129.972 29.7616C136.999 36.9168 147.546 37.9955 153.481 32.1663C159.416 26.337 158.527 15.773 151.5 8.61759C147.517 4.56218 142.403 2.45876 137.64 2.45876Z" fill="#3F3D56"/>
<path d="M158.224 45.2912L115.476 1.77128C113.187 -0.561565 109.429 -0.59344 107.096 1.69561L102.204 6.50465L60.69 47.2777C59.1852 48.7507 58.5842 50.8526 59.0818 52.8988C59.5754 54.945 61.0762 56.5414 63.0867 57.1624L68.1385 58.7309L83.6124 63.528C96.021 67.3776 107.395 74.3124 116.499 83.5841L117.841 84.9496C125.835 93.0866 138.956 93.2061 147.093 85.2123L157.957 74.5434C166.094 66.5496 166.213 53.4283 158.224 45.2912Z" fill="#3F3D56"/>
<path d="M95.1731 40.6175C87.7288 51.2347 77.3624 57.7954 68.1385 58.7309L63.0867 57.1624C61.0762 56.5414 59.5754 54.945 59.0818 52.8988C58.5842 50.8526 59.1852 48.7507 60.69 47.2777L102.204 6.50464C105.727 15.6888 103.342 28.9732 95.1731 40.6175Z" fill="#0F7718"/>
<path d="M153.618 65.1298C155.028 65.2397 156.392 65.6859 157.595 66.431L172.375 66.8507L171.969 73.8776L157.02 72.6952C155.703 73.2088 154.281 73.3993 152.875 73.2509C149.349 72.9276 146.659 70.8479 146.865 68.6051C147.07 66.3623 150.094 64.8063 153.618 65.1298Z" fill="#FFB6B6"/>
<path d="M161.289 73.8339L161.132 73.7732L163.125 65.5709L176.174 65.5031L178.613 45.293C179.091 41.3298 182.462 38.3412 186.454 38.3412C188.696 38.3412 190.84 39.2985 192.337 40.9673C193.832 42.6343 194.549 44.8672 194.306 47.0929C192.815 60.7321 190.041 77.2566 185.291 78.5236C184.387 78.7644 183.33 78.8696 182.17 78.8696C174.34 78.8696 161.89 74.0679 161.289 73.8339Z" fill="#0F7718"/>
<path d="M186.437 33.2893C192.674 33.2893 197.73 28.2329 197.73 21.9955C197.73 15.7581 192.674 10.7017 186.437 10.7017C180.199 10.7017 175.143 15.7581 175.143 21.9955C175.143 28.2329 180.199 33.2893 186.437 33.2893Z" fill="#FFB6B6"/>
<path d="M193.866 31.744L192.891 30.1192C192.891 30.1192 197.162 27.2403 193.633 25.5694C190.105 23.8985 189.547 19.813 189.547 19.813C189.547 19.813 179.24 16.8431 179.797 14.6145C180.354 12.386 178.775 10.8077 181.375 9.87885C183.974 8.94999 195.581 9.87705 196.881 12.5696C198.182 15.2622 199.483 22.6902 198.833 23.7117C198.183 24.7331 193.866 31.744 193.866 31.744Z" fill="#2F2E41"/>
<path d="M190.94 18.9772L180.446 12.0146C180.446 12.0146 166.889 7.83793 171.997 15.8226L176.315 16.7042C176.315 16.7042 188.061 19.4418 190.94 18.9772Z" fill="#0F7718"/>
<path d="M187.782 17.3991L198.74 25.6616C198.74 25.6616 205.145 14.2399 195.117 8.57717C185.088 2.91444 178.729 11.7827 178.729 11.7827L181.375 14.6143L187.782 17.3991Z" fill="#0F7718"/>
<path d="M217.817 212.105C225.292 212.105 231.352 206.045 231.352 198.57C231.352 191.095 225.292 185.035 217.817 185.035C210.342 185.035 204.282 191.095 204.282 198.57C204.282 206.045 210.342 212.105 217.817 212.105Z" fill="#CCCCCC"/>
<path d="M254.044 210.911C261.519 210.911 267.579 204.851 267.579 197.376C267.579 189.9 261.519 183.84 254.044 183.84C246.568 183.84 240.508 189.9 240.508 197.376C240.508 204.851 246.568 210.911 254.044 210.911Z" fill="#CCCCCC"/>
<path d="M236.527 225.64C244.003 225.64 250.063 219.58 250.063 212.105C250.063 204.63 244.003 198.57 236.527 198.57C229.052 198.57 222.992 204.63 222.992 212.105C222.992 219.58 229.052 225.64 236.527 225.64Z" fill="#CCCCCC"/>
</g>
<defs>
<clipPath id="clip0_10_15">
<rect width="304.557" height="240.419" fill="white" transform="scale(1.00145)"/>
</clipPath>
</defs>
</svg>
