<svg width="24" height="24" viewBox="0 0 24 24" fill="none" xmlns="http://www.w3.org/2000/svg">
<path d="M3.08206 13.945C2.55306 12.995 2.28906 12.519 2.28906 12C2.28906 11.481 2.55306 11.006 3.08206 10.056L4.43006 7.62999L5.85606 5.24899C6.41506 4.31599 6.69406 3.84899 7.14306 3.58899C7.59306 3.32999 8.13606 3.32199 9.22306 3.30399L12.0001 3.25999L14.7751 3.30399C15.8631 3.32199 16.4061 3.32999 16.8551 3.58999C17.3051 3.84999 17.5851 4.31599 18.1431 5.24899L19.5701 7.62999L20.9201 10.056C21.4481 11.006 21.7121 11.481 21.7121 12C21.7121 12.519 21.4481 12.994 20.9191 13.944L19.5701 16.37L18.1441 18.751C17.5851 19.684 17.3061 20.151 16.8571 20.411C16.4071 20.67 15.8641 20.678 14.7771 20.696L12.0001 20.74L9.22506 20.696C8.13706 20.678 7.59406 20.67 7.14506 20.41C6.69506 20.15 6.41506 19.684 5.85706 18.751L4.43006 16.37L3.08206 13.945Z" stroke="black" stroke-width="2"/>
<path d="M12 15C13.6569 15 15 13.6569 15 12C15 10.3431 13.6569 9 12 9C10.3431 9 9 10.3431 9 12C9 13.6569 10.3431 15 12 15Z" stroke="black" stroke-width="2"/>
</svg>
