<svg width="38" height="38" viewBox="0 0 38 38" fill="none" xmlns="http://www.w3.org/2000/svg">
<path d="M19.0001 3.95833C20.8622 3.95776 22.6755 4.55412 24.1738 5.65989C25.6721 6.76566 26.7765 8.32259 27.3249 10.1022C27.8733 11.8818 27.8368 13.7903 27.2207 15.5476C26.6047 17.3049 25.4416 18.8184 23.9021 19.8661C26.5742 20.8462 28.8918 22.6035 30.5567 24.912C32.2215 27.2205 33.1574 29.9744 33.2437 32.8193C33.2518 32.9772 33.2283 33.1352 33.1745 33.2839C33.1207 33.4326 33.0378 33.569 32.9305 33.6852C32.8233 33.8014 32.694 33.8951 32.5501 33.9606C32.4062 34.0262 32.2507 34.0623 32.0926 34.067C31.9346 34.0716 31.7772 34.0446 31.6297 33.9876C31.4822 33.9306 31.3476 33.8447 31.2337 33.735C31.1199 33.6253 31.0291 33.4939 30.9667 33.3487C30.9043 33.2034 30.8715 33.0471 30.8703 32.889C30.776 29.8038 29.4842 26.8765 27.2685 24.7276C25.0528 22.5786 22.0875 21.3767 19.0009 21.3767C15.9142 21.3767 12.9489 22.5786 10.7332 24.7276C8.51754 26.8765 7.22568 29.8038 7.13139 32.889C7.12195 33.2039 6.98777 33.5022 6.75839 33.7183C6.52901 33.9343 6.22321 34.0503 5.90827 34.0409C5.59332 34.0314 5.29503 33.8972 5.07901 33.6679C4.863 33.4385 4.74695 33.1327 4.75639 32.8177C4.84308 29.9731 5.77906 27.2196 7.44388 24.9114C9.1087 22.6032 11.4262 20.8461 14.0981 19.8661C12.5586 18.8184 11.3954 17.3049 10.7794 15.5476C10.1634 13.7903 10.1268 11.8818 10.6752 10.1022C11.2236 8.32259 12.328 6.76566 13.8263 5.65989C15.3246 4.55412 17.1379 3.95776 19.0001 3.95833ZM12.6667 12.6667C12.6667 14.3464 13.334 15.9573 14.5217 17.145C15.7094 18.3327 17.3204 19 19.0001 19C20.6798 19 22.2907 18.3327 23.4784 17.145C24.6661 15.9573 25.3334 14.3464 25.3334 12.6667C25.3334 10.987 24.6661 9.37605 23.4784 8.18832C22.2907 7.00059 20.6798 6.33333 19.0001 6.33333C17.3204 6.33333 15.7094 7.00059 14.5217 8.18832C13.334 9.37605 12.6667 10.987 12.6667 12.6667Z" fill="black"/>
</svg>
