<svg width="24" height="24" viewBox="0 0 24 24" fill="none" xmlns="http://www.w3.org/2000/svg">
<path d="M5 22C4.45 22 3.97933 21.8043 3.588 21.413C3.19667 21.0217 3.00067 20.5507 3 20V6C3 5.45 3.196 4.97933 3.588 4.588C3.98 4.19667 4.45067 4.00067 5 4H6V3C6 2.71667 6.096 2.47933 6.288 2.288C6.48 2.09667 6.71733 2.00067 7 2C7.28333 2 7.521 2.096 7.713 2.288C7.905 2.48 8.00067 2.71733 8 3V4H16V3C16 2.71667 16.096 2.47933 16.288 2.288C16.48 2.09667 16.7173 2.00067 17 2C17.2833 2 17.521 2.096 17.713 2.288C17.905 2.48 18.0007 2.71733 18 3V4H19C19.55 4 20.021 4.196 20.413 4.588C20.805 4.98 21.0007 5.45067 21 6V10.025C21 10.3083 20.904 10.546 20.712 10.738C20.52 10.93 20.2827 11.0257 20 11.025C19.7167 11.025 19.4793 10.929 19.288 10.737C19.0967 10.545 19.0007 10.308 19 10.026V10H5V20H11C11.2833 20 11.521 20.096 11.713 20.288C11.905 20.48 12.0007 20.7173 12 21C12 21.2833 11.904 21.521 11.712 21.713C11.52 21.905 11.2827 22.0007 11 22H5ZM5 8H19V6H5V8ZM14 21V19.35C14 19.2167 14.025 19.0877 14.075 18.963C14.125 18.8383 14.2 18.7257 14.3 18.625L19.525 13.425C19.675 13.275 19.8417 13.1667 20.025 13.1C20.2083 13.0333 20.3917 13 20.575 13C20.775 13 20.9667 13.0377 21.15 13.113C21.3333 13.1883 21.5 13.3007 21.65 13.45L22.575 14.375C22.7083 14.525 22.8127 14.6917 22.888 14.875C22.9633 15.0583 23.0007 15.2417 23 15.425C23 15.6083 22.9667 15.796 22.9 15.988C22.8333 16.18 22.725 16.3507 22.575 16.5L17.375 21.7C17.275 21.8 17.1627 21.875 17.038 21.925C16.9133 21.975 16.784 22 16.65 22H15C14.7167 22 14.4793 21.9043 14.288 21.713C14.0967 21.5217 14.0007 21.284 14 21ZM15.5 20.5H16.45L19.475 17.45L19.025 16.975L18.55 16.525L15.5 19.55V20.5ZM19.025 16.975L18.55 16.525L19.475 17.45L19.025 16.975Z" fill="#0FA958"/>
</svg>
